<?xml version="1.0" encoding="utf-8"?>
<!-- Generator: Adobe Illustrator 28.0.0, SVG Export Plug-In . SVG Version: 6.00 Build 0)  -->
<svg version="1.1" id="Lag_1" xmlns="http://www.w3.org/2000/svg" xmlns:xlink="http://www.w3.org/1999/xlink" x="0px" y="0px"
	 viewBox="0 0 50 50" style="enable-background:new 0 0 50 50;" xml:space="preserve">
<style type="text/css">
	.st0{fill:#F34569;}
</style>
<path class="st0" d="M11.9,0C5.3,0,0,5.3,0,11.9v26.2C0,44.7,5.3,50,11.9,50h26.2C44.7,50,50,44.7,50,38.1V11.9
	C50,5.3,44.7,0,38.1,0H11.9z M10.7,14.3h28.6c0.2,0,0.4,0,0.6,0.1L28.2,26.1c-1.8,1.8-4.6,1.8-6.4,0L10.1,14.4
	C10.3,14.3,10.5,14.3,10.7,14.3z M8.4,16.1l9,8.9l-9,8.9c-0.1-0.2-0.1-0.4-0.1-0.6V16.7C8.3,16.5,8.4,16.3,8.4,16.1z M41.6,16.1
	c0.1,0.2,0.1,0.4,0.1,0.6v16.7c0,0.2,0,0.4-0.1,0.6l-9-8.9L41.6,16.1z M19,26.7l1.1,1.1c1.3,1.3,3.1,2,4.9,2c1.8,0,3.5-0.7,4.9-2
	l1.1-1.1l9,9c-0.2,0.1-0.4,0.1-0.6,0.1H10.7c-0.2,0-0.4,0-0.6-0.1L19,26.7z"/>
</svg>
