<?xml version="1.0" encoding="utf-8"?>
<!-- Generator: Adobe Illustrator 28.0.0, SVG Export Plug-In . SVG Version: 6.00 Build 0)  -->
<svg version="1.1" id="Lag_1" xmlns="http://www.w3.org/2000/svg" xmlns:xlink="http://www.w3.org/1999/xlink" x="0px" y="0px"
	 viewBox="0 0 50 50" style="enable-background:new 0 0 50 50;" xml:space="preserve">
<style type="text/css">
	.st0{fill:#32506A;}
</style>
<path class="st0" d="M11.9,0C5.4,0,0,5.3,0,11.9v26.2C0,44.7,5.4,50,11.9,50h26.2C44.7,50,50,44.7,50,38.1V11.9
	C50,5.3,44.7,0,38.1,0H11.9z M16.7,9.6c0.7,0,1.4,0.5,1.8,1.1c0.5,0.7,1.2,1.9,2.2,3.4c0.9,1.4,0.9,3.1,0.2,4.5l-1.7,2.5
	c-0.5,0.7-0.6,1.5-0.2,2.3c0.5,1.2,1.4,3,3.1,4.7c1.7,1.7,3.5,2.7,4.7,3.1c0.8,0.3,1.6,0.2,2.3-0.2l2.5-1.7c1.4-0.8,3.2-0.7,4.5,0.2
	c1.5,1,2.6,1.7,3.4,2.2c0.6,0.4,1.1,1.1,1.1,1.8c0.2,4.2-3.1,6-4.1,6c-0.7,0-8.6,0.9-17.6-8.1s-8.1-16.9-8.1-17.6
	C10.7,12.7,12.4,9.4,16.7,9.6z"/>
</svg>
